<?xml version="1.0" encoding="UTF-8"?>
<!-- Generated by Pixelmator Pro 3.7 -->
<svg width="1024" height="1024" viewBox="0 0 1024 1024" xmlns="http://www.w3.org/2000/svg">
    <clipPath id="clipPath1">
        <path d="M 190.808645 -40.628355 L 892.578461 -40.628355 C 1021.770719 -40.628355 1126.501759 64.102608 1126.501759 193.294942 L 1126.501759 895.064778 C 1126.501759 1024.257035 1021.770719 1128.988056 892.578461 1128.988056 L 190.808645 1128.988056 C 61.616378 1128.988056 -43.114653 1024.257035 -43.114653 895.064778 L -43.114653 193.294942 C -43.114653 64.102608 61.616378 -40.628355 190.808645 -40.628355 Z"/>
    </clipPath>
    <g id="Group" clip-path="url(#clipPath1)">
        <path id="path85" fill="#000000" stroke="#000700" stroke-width="1.484865" d="M 505.330475 357.570129 C 492.082886 357.247986 478.924408 360.645569 464.095093 367.921326 C 439.266327 380.103271 417.387207 407.181152 406.777496 438.85614 C 399.089355 461.808716 396.465027 477.963928 396.475342 502.299805 C 396.494751 550.942932 409.438232 587.071594 436.593018 614.273682 C 450.404205 628.108948 460.578735 634.532227 475.44577 638.80426 C 488.781006 642.636108 512.044434 642.495789 526.494629 638.494141 C 542.331848 634.108398 552.742249 627.763977 566.141602 614.338379 C 580.382202 600.069824 590.097656 583.725891 597.168518 562.140503 C 617.950317 498.699402 604.610657 425.80072 564.816528 385.346558 C 552.360352 372.68396 543.453491 366.804077 529.651306 362.134399 C 521.259521 359.295349 513.278992 357.763367 505.330475 357.570129 Z M 501.417542 379.702515 C 508.140198 379.702515 508.747009 384.073364 505.071655 406.015564 C 502.203308 423.140137 501.846039 429.619873 502.582001 451.208496 C 503.45459 476.806335 503.672272 478.147156 514.198181 522.859497 C 520.448608 549.410278 521.946838 577.504761 518.242676 598.737915 C 515.837524 612.52533 512.583191 621.437988 509.118439 623.730286 C 506.308716 625.589233 504.236725 625.056335 501.189972 621.691284 C 498.633453 618.867615 498.171387 615.022095 497.297089 589.328125 C 496.328888 560.874146 496.122864 559.450562 488.714966 530.381958 C 478.875305 491.771057 477.137573 478.581848 478.169678 450.307251 C 479.63092 410.276184 489.697845 379.702515 501.417542 379.702515 Z"/>
        <path id="rect3" fill="#020000" stroke="#000700" stroke-width="1.484865" d="M 501.335724 93.391724 C 503.988159 93.391724 506.123566 96.435059 506.123566 100.215393 L 506.123566 160.830872 C 506.123566 164.611206 503.988159 167.654541 501.335724 167.654541 C 498.683258 167.654541 496.547882 164.611206 496.547882 160.830872 L 496.547882 100.215393 C 496.547882 96.435059 498.683258 93.391724 501.335724 93.391724 Z"/>
        <path id="rect3-6" fill="#020000" stroke="#000700" stroke-width="1.484865" d="M 281.585693 141.773865 C 283.882813 140.447571 287.253784 142.015503 289.143951 145.289429 L 319.451691 197.783936 C 321.341858 201.0578 321.014221 204.761108 318.717102 206.087341 C 316.420044 207.413513 313.049072 205.845642 311.158905 202.571777 L 280.851166 150.077271 C 278.960999 146.803345 279.288635 143.100037 281.585693 141.773865 Z"/>
        <path id="rect3-6-8" fill="#020000" stroke="#000700" stroke-width="1.484865" d="M 685.677307 795.164612 C 687.974426 793.838379 691.345459 795.406372 693.235535 798.680115 L 723.543274 851.174683 C 725.433472 854.448608 725.105835 858.151855 722.808716 859.478088 C 720.511597 860.804321 717.140686 859.23645 715.250488 855.962524 L 684.942749 803.467957 C 683.052673 800.194214 683.380249 796.490845 685.677307 795.164612 Z"/>
        <path id="rect3-11" fill="#020000" stroke="#000700" stroke-width="1.484865" d="M 869.426575 289.340149 C 870.752808 291.637207 869.184937 295.008118 865.911011 296.898315 L 813.416443 327.206116 C 810.142639 329.096191 806.43927 328.768616 805.113037 326.471558 C 803.786865 324.174438 805.354797 320.803406 808.628601 318.91333 L 861.123169 288.60553 C 864.397095 286.715393 868.100281 287.042969 869.426575 289.340149 Z"/>
        <path id="rect3-11-6" fill="#020000" stroke="#000700" stroke-width="1.484865" d="M 200.390671 676.630371 C 201.716873 678.92749 200.148956 682.298401 196.875076 684.188538 L 144.380508 714.496338 C 141.106674 716.386475 137.403381 716.058838 136.077164 713.76178 C 134.750916 711.464661 136.318848 708.09375 139.592682 706.203552 L 192.08728 675.895813 C 195.361115 674.005615 199.064423 674.333252 200.390671 676.630371 Z"/>
        <path id="rect3-5" fill="#020000" stroke="#000700" stroke-width="1.484865" d="M 500.084198 835.707153 C 502.736603 835.707153 504.87204 838.750488 504.87204 842.530823 L 504.87204 903.146301 C 504.87204 906.926636 502.736603 909.969971 500.084198 909.969971 C 497.431732 909.969971 495.296356 906.926636 495.296356 903.146301 L 495.296356 842.530823 C 495.296356 838.750488 497.431732 835.707153 500.084198 835.707153 Z"/>
        <path id="rect3-5-6" fill="#020000" stroke="#000700" stroke-width="1.484865" d="M 318.213867 797.644653 C 320.510986 798.970825 320.838562 802.674194 318.948395 805.947998 L 288.640656 858.442566 C 286.750488 861.716431 283.379547 863.284302 281.082458 861.95813 C 278.78537 860.631836 278.457733 856.928589 280.3479 853.654724 L 310.65564 801.160156 C 312.545807 797.886353 315.916748 796.31842 318.213867 797.644653 Z"/>
        <path id="rect3-1" fill="#020000" stroke="#000700" stroke-width="1.484865" d="M 928 502.753235 C 928 505.405701 924.956665 507.541077 921.176331 507.541077 L 860.560852 507.541077 C 856.780518 507.541077 853.737183 505.405701 853.737183 502.753235 C 853.737183 500.100769 856.780518 497.965454 860.560852 497.965454 L 921.176331 497.965454 C 924.956665 497.965454 928 500.100769 928 502.753235 Z"/>
        <path id="rect3-1-2" fill="#020000" stroke="#000700" stroke-width="1.484865" d="M 152.262848 501.586548 C 152.262848 504.239014 149.219498 506.37439 145.439178 506.37439 L 84.823685 506.37439 C 81.04335 506.37439 78 504.239014 78 501.586548 C 78 498.934082 81.04335 496.798706 84.823685 496.798706 L 145.439178 496.798706 C 149.219498 496.798706 152.262848 498.934082 152.262848 501.586548 Z"/>
        <path id="rect3-1-2-6" fill="#020000" stroke="#000700" stroke-width="1.484865" d="M 198.710938 327.085022 C 197.384689 329.382141 193.681381 329.709778 190.407547 327.81958 L 137.912994 297.511841 C 134.639114 295.621704 133.071213 292.250732 134.397446 289.953674 C 135.723679 287.656555 139.426956 287.328918 142.700836 289.219116 L 195.195389 319.526794 C 198.469223 321.416992 200.037186 324.787903 198.710938 327.085022 Z"/>
        <path id="rect3-1-2-6-2" fill="#020000" stroke="#000700" stroke-width="1.484865" d="M 869.446716 713.934204 C 868.120544 716.231323 864.417236 716.55896 861.143311 714.668762 L 808.648804 684.361084 C 805.374939 682.470825 803.807068 679.099915 805.13324 676.802795 C 806.459473 674.505737 810.162781 674.178101 813.436646 676.068237 L 865.931152 706.375977 C 869.205078 708.266174 870.77301 711.637085 869.446716 713.934204 Z"/>
        <path id="rect3-5-6-4" fill="#020000" stroke="#000700" stroke-width="1.484865" d="M 725.093201 140.681946 C 727.390198 142.008179 727.717773 145.711487 725.827637 148.985352 L 695.519897 201.479919 C 693.629761 204.753784 690.25885 206.321716 687.961731 204.995422 C 685.664612 203.66925 685.336975 199.965942 687.227173 196.692078 L 717.534851 144.19751 C 719.425049 140.923645 722.796021 139.355713 725.093201 140.681946 Z"/>
    </g>
</svg>
